<svg xmlns="http://www.w3.org/2000/svg" viewBox="0 0 64 64" role="img">
  <title>Google Antigravity</title>
  <rect width="64" height="64" rx="14" fill="#fff"/>
  <path fill="#111827" d="M32 8 52 19.5v23L32 54 12 42.5v-23L32 8Zm0 5.8L17 22.4v17.2l15 8.6 15-8.6V22.4l-15-8.6Z"/>
  <path fill="#111827" d="m32 23.2 10.8 6.2v12.4L32 48l-10.8-6.2V29.4L32 23.2Zm0 6.2-5.4 3.1v6.2l5.4 3.1 5.4-3.1v-6.2L32 29.4Z"/>
  <path fill="#4285f4" d="M32 8v5.8L17 22.4l-5-2.9L32 8Z"/>
  <path fill="#34a853" d="m52 19.5-5 2.9-15-8.6V8l20 11.5Z"/>
  <path fill="#fbbc04" d="M47 39.6V22.4l5-2.9v23L32 54v-5.8l15-8.6Z"/>
  <path fill="#ea4335" d="m17 39.6 15 8.6V54L12 42.5v-23l5 2.9v17.2Z"/>
</svg>
