<svg xmlns="http://www.w3.org/2000/svg" width="48" height="48" version="1.1">
  <path style="opacity:0.2" d="m16.846877 12c-1.116351 0-2.227419.912229-2.015075 2l3.122973 16-5.596557 11.109375c-.398342.762359-.472974 1.227613-.181042 1.890625.278672.632897.998812 1 1.747448 1h20.150751c.748637 0 1.468777-.367103 1.747448-1 .291932-.663012.217302-1.128266-.181041-1.890625L30.045225 30l3.122973-16c.212344-1.087771-.898724-2-2.015075-2H24z"/>
  <path style="fill:#cccccc" d="m16.846877 11c-1.116351 0-2.227419.912229-2.015075 2l3.122973 16-5.596557 11.109375c-.398342.762359-.472974 1.227613-.181042 1.890625.278672.632897.998812 1 1.747448 1h20.150751c.748637 0 1.468777-.367103 1.747448-1 .291932-.663012.217302-1.128266-.181041-1.890625L30.045225 29l3.122973-16c.212344-1.087771-.898724-2-2.015075-2H24z"/>
  <rect style="opacity:0.2" width="40" height="32" x="4" y="6" rx="2" ry="2"/>
  <path style="fill:#e4e4e4" d="m4 33v2c0 1.108.892 2 2 2h36c1.108 0 2-.892 2-2v-2z"/>
  <path style="fill:#077063" d="M6 5c-1.108 0-2 .892-2 2v26h40V7c0-1.108-.892-2-2-2z"/>
  <path style="opacity:0.1;fill:#fff" d="M6 5c-1.108 0-2 .892-2 2v1c0-1.108.892-2 2-2h36c1.108 0 2 .892 2 2V7c0-1.108-.892-2-2-2z"/>
  <path style="fill:none;stroke:#30dd81;stroke-width:3;stroke-linecap:round" d="M15.1998 21.000026 11.5 15.5m21.299764 5.500026L36.5 15.5"/>
  <path style="fill:#30dd81" d="M24.002386 17.000034c-8.355868 0-15.221498 6.346843-15.999967 14.460906C7.928926 33.000882 9.5545 33 9.5545 33h28.851503s1.672201-.000335 1.591142-1.617185c-.814338-8.077219-7.665309-14.382781-15.994759-14.382781z"/>
  <path style="opacity:0.2" d="M16 25a1.999996 1.999996 0 0 0-2 2 1.999996 1.999996 0 0 0 2 2 1.999996 1.999996 0 0 0 2-2 1.999996 1.999996 0 0 0-2-2zm16 0a1.999996 1.999996 0 0 0-2 2 1.999996 1.999996 0 0 0 2 2 1.999996 1.999996 0 0 0 2-2 1.999996 1.999996 0 0 0-2-2z"/>
  <path style="fill:#fff" d="M15.999996 24.000008a1.999996 1.999996 0 0 1 1.999996 1.999996A1.999996 1.999996 0 0 1 15.999996 28 1.999996 1.999996 0 0 1 14 26.000004a1.999996 1.999996 0 0 1 1.999996-1.999996zm16 0a1.999996 1.999996 0 0 1 1.999995 1.999996A1.999996 1.999996 0 0 1 31.999996 28 1.999996 1.999996 0 0 1 30 26.000004a1.999996 1.999996 0 0 1 1.999996-1.999996z"/>
</svg>
