<?xml version="1.0" encoding="utf-8"?><svg fill="none" viewBox="0 0 2835 2835" xmlns="http://www.w3.org/2000/svg"><defs /><g id="Cup handle"><g transform="translate(1885.136,1372.797)"><animateTransform repeatCount="indefinite" type="translate" attributeName="transform" dur="0.5s" begin="0s" calcMode="spline" values="1885.136 1372.797; 1885.136 1700.797" keyTimes="0; 1" keySplines="0.333 0 0 1" fill="freeze" /><g transform="scale(1,1) translate(-197.773,-222.49)"><g id="Group 1" transform="matrix(1,0,0,1,197.773,222.49)"><path fill="#7d330d" fill-opacity="1" d="M-62.401,-221.849C-83.521,-122.487,-94.081,-72.806,-94.081,-72.806C-42.56,-156.888,131.603,-173.687,107.842,-51.446C99.042,-6.165,64.241,34.555,25.36,62.956C-22.481,98.076,-80.881,111.756,-150.002,104.316C-150.002,104.316,-165.842,142.477,-197.523,218.878C-131.041,222.239,-50.72,201.758,22.961,155.597C114.723,98.076,197.524,7.115,183.124,-108.007C172.82,-189.831,92.23,-222.238,-37.088,-222.24C-45.333,-222.24,-53.765,-222.108,-62.401,-221.849Z" /></g></g></g></g><g id="Cup"><g transform="translate(1372.169,1371.912)"><animateTransform repeatCount="indefinite" type="translate" attributeName="transform" dur="0.5s" begin="0s" calcMode="spline" values="1372.169 1371.912; 1372.169 1699.912" keyTimes="0; 1" keySplines="0.333 0 0 1" fill="freeze" /><g transform="scale(1,1) translate(-496.497,-311.935)"><g id="Group 1" transform="matrix(1,0,0,1,496.497,311.935)"><path fill="#8b3a10" fill-opacity="1" d="M-440.807,-311.685C-456.327,-311.685,-469.688,-306.005,-480.409,-294.725C-491.128,-283.525,-496.248,-269.924,-495.528,-254.405C-482.008,39.6,-404.647,228.324,-263.284,311.685L263.284,311.685C404.646,228.324,482.008,39.6,495.528,-254.405C496.248,-269.924,491.128,-283.525,480.408,-294.725C469.688,-305.925,456.327,-311.685,440.806,-311.685L-440.807,-311.685Z" /></g></g></g></g><g id="Saucer"><g transform="translate(1691.168,1995.798)"><animateTransform repeatCount="indefinite" type="translate" attributeName="transform" dur="0.5s" begin="0s" calcMode="spline" values="1691.168 1995.798; 1417.01 2075.798" keyTimes="0; 1" keySplines="0.333 0 0 1" fill="freeze" /><g transform="rotate(-10)"><animateTransform repeatCount="indefinite" type="rotate" attributeName="transform" dur="0.5s" begin="0s" calcMode="spline" values="-10; 0" keyTimes="0; 1" keySplines="0.333 0 0 1" fill="freeze" /><g transform="scale(1,1) translate(-607.579,-71.731)"><g id="Group 1" transform="matrix(1,0,0,1,607.579,71.731)"><path fill="#682b0d" fill-opacity="1" d="M-592.849,-71.481L592.77,-71.481C597.97,-71.481,602.369,-68.841,604.849,-64.281C607.329,-59.721,607.089,-54.601,604.209,-50.281C561.409,14.76,445.328,71.481,308.686,71.481L-308.765,71.481C-445.328,71.481,-561.488,14.76,-604.289,-50.281C-607.089,-54.601,-607.33,-59.721,-604.93,-64.281C-602.45,-68.841,-597.969,-71.481,-592.849,-71.481Z" /></g></g></g></g></g><g opacity="1" visibility="hidden" id="Steam 3"><animate repeatCount="indefinite" begin="0.5s" calcMode="discrete" fill="freeze" dur="3s" values="visible; visible" keyTimes="0; 1" attributeName="visibility" /><animate repeatCount="indefinite" attributeName="opacity" dur="0.5s" begin="1s" calcMode="spline" values="1; 0" keyTimes="0; 1" keySplines="0.333 0 0 1" fill="freeze" /><g transform="translate(1549.011,1196.823)"><animateTransform repeatCount="indefinite" type="translate" attributeName="transform" dur="1s" begin="0.5s" calcMode="spline" values="1549.011 1196.823; 1549.011 1116.823" keyTimes="0; 1" keySplines="0.333 0 0 1" fill="freeze" /><g transform="scale(1,1) translate(-64.28,-161.402)"><g id="Group 1" transform="matrix(1,0,0,1,64.281,161.402)"><path stroke-linejoin="miter" stroke-linecap="round" stroke-width="36" stroke-opacity="1" stroke="#ce9a81" d="M16.76,131.402C24.04,112.762,34.28,67.641,16.76,36.68C-5.16,-2.04,-27.081,-12.68,-31.161,-46.041C-34.281,-71.481,-23.4,-113.162,-18.84,-131.402" /></g></g></g></g><g opacity="1" visibility="hidden" id="Steam 2"><animate repeatCount="indefinite" begin="0.5s" calcMode="discrete" fill="freeze" dur="3s" values="visible; visible" keyTimes="0; 1" attributeName="visibility" /><animate repeatCount="indefinite" attributeName="opacity" dur="0.5s" begin="1s" calcMode="spline" values="1; 0" keyTimes="0; 1" keySplines="0.333 0 0 1" fill="freeze" /><g transform="translate(1373.808,1212.823)"><animateTransform repeatCount="indefinite" type="translate" attributeName="transform" dur="1s" begin="0.5s" calcMode="spline" values="1373.808 1212.823; 1373.808 1132.823" keyTimes="0; 1" keySplines="0.333 0 0 1" fill="freeze" /><g transform="scale(1,1) translate(-64.281,-161.402)"><g id="Group 1" transform="matrix(1,0,0,1,64.281,161.402)"><path stroke-linejoin="miter" stroke-linecap="round" stroke-width="36" stroke-opacity="1" stroke="#ce9a81" d="M16.76,131.402C24.04,112.762,34.28,67.641,16.76,36.68C-5.16,-2.04,-27.081,-12.68,-31.161,-46.041C-34.281,-71.481,-23.4,-113.162,-18.84,-131.402" /></g></g></g></g><g opacity="1" visibility="hidden" id="Steam 1"><animate repeatCount="indefinite" begin="0.5s" calcMode="discrete" fill="freeze" dur="3s" values="visible; visible" keyTimes="0; 1" attributeName="visibility" /><animate repeatCount="indefinite" attributeName="opacity" dur="0.5s" begin="1s" calcMode="spline" values="1; 0" keyTimes="0; 1" keySplines="0.333 0 0 1" fill="freeze" /><g transform="translate(1198.525,1196.823)"><animateTransform repeatCount="indefinite" type="translate" attributeName="transform" dur="1s" begin="0.5s" calcMode="spline" values="1198.525 1196.823; 1198.525 1116.823" keyTimes="0; 1" keySplines="0.333 0 0 1" fill="freeze" /><g transform="scale(1,1) translate(-64.281,-161.402)"><g id="Group 1" transform="matrix(1,0,0,1,64.281,161.402)"><path stroke-linejoin="miter" stroke-linecap="round" stroke-width="36" stroke-opacity="1" stroke="#ce9a81" d="M16.76,131.402C24.04,112.762,34.28,67.641,16.76,36.68C-5.16,-2.04,-27.081,-12.68,-31.161,-46.041C-34.281,-71.481,-23.4,-113.162,-18.84,-131.402" /></g></g></g></g></svg>