<?xml version="1.0" encoding="utf-8"?><svg fill="none" viewBox="0 0 800 800" xmlns="http://www.w3.org/2000/svg"><defs /><g transform="matrix(1,0,0,1,117,315.922)" id="contentsアウトライン"><g id="グループ 4" transform="matrix(1,0,0,1,282.75,169.63)"><path fill="#0066ff" fill-opacity="1" d="M-198.024,13.715L249.588,13.715L249.588,49.094L-198.024,49.094L-198.024,13.715ZM-282.5,-127.811L-282.5,127.81C-282.5,133.845,-277.563,138.781,-271.529,138.781L-219.966,138.781C-213.932,138.781,-208.995,133.845,-208.995,127.81L-208.995,89.412L208.995,89.412L208.995,127.81C208.995,133.845,213.932,138.781,219.966,138.781L271.529,138.781C277.563,138.781,282.5,133.845,282.5,127.81L282.5,-8.229C282.5,-14.262,277.563,-19.198,271.529,-19.198L-208.995,-19.198L-208.995,-127.811C-208.995,-133.844,-213.932,-138.781,-219.966,-138.781L-271.529,-138.781C-277.563,-138.781,-282.5,-133.844,-282.5,-127.811Z" /></g><g id="グループ 3" transform="matrix(1,0,0,1,144.167,109.305)"><path fill="#0066ff" fill-opacity="1" d="M-56,9.858C-56,20.308,-47.45,28.858,-37,28.858L37,28.858C47.45,28.858,56,20.308,56,9.858L56,5.858C56,-4.592,47.547,-14.424,37.215,-15.992L-37.215,-27.29C-47.547,-28.858,-56,-21.592,-56,-11.142L-56,9.858Z" /></g><g id="グループ 2" transform="matrix(1,0,0,1,167.75,41.833)"><path fill="#0066ff" fill-opacity="1" d="M-41.583,0C-41.583,22.965,-22.966,41.583,0,41.583C22.966,41.583,41.583,22.965,41.583,0C41.583,-22.965,22.966,-41.583,0,-41.583C-22.966,-41.583,-41.583,-22.965,-41.583,0Z" /></g><g id="グループ 1" transform="matrix(1,0,0,1,388.374,90.663)"><path fill="#0066ff" fill-opacity="1" d="M-177.376,-15.748C-177.376,-30.598,-165.226,-42.748,-150.376,-42.748L150.376,-25.738C165.227,-25.738,177.376,-13.588,177.376,1.262L177.376,28.748C177.376,36.449,171.076,42.748,163.376,42.748L-163.376,42.748C-171.076,42.748,-177.376,36.449,-177.376,28.748L-177.376,-15.748Z" /></g></g><g id="レイヤー 2アウトライン"><g transform="translate(322.863,308.302)"><animateTransform repeatCount="indefinite" type="translate" attributeName="transform" dur="5.506s" begin="0s" calcMode="spline" values="322.863 308.302; 387.061 242.458; 322.863 308.302; 387.061 242.458; 322.863 308.302; 387.061 242.458; 322.863 308.302; 387.061 242.458" keyTimes="0; 0.182; 0.273; 0.455; 0.545; 0.727; 0.818; 1" keySplines="0 0 1 1; 0 0 1 1; 0 0 1 1; 0 0 1 1; 0 0 1 1; 0 0 1 1; 0 0 1 1" fill="freeze" /><g transform="scale(0.01,0.01)"><animateTransform repeatCount="indefinite" type="scale" attributeName="transform" dur="5.506s" begin="0s" calcMode="spline" values="0.01 0.01; 1 1; 0.01 0.01; 1 1; 0.01 0.01; 1 1; 0.01 0.01; 1 1" keyTimes="0; 0.182; 0.273; 0.455; 0.545; 0.727; 0.818; 1" keySplines="0 0 1 1; 0 0 1 1; 0 0 1 1; 0 0 1 1; 0 0 1 1; 0 0 1 1; 0 0 1 1" fill="freeze" /><g transform="translate(-52.73,-63.18)"><g id="グループ 2" transform="matrix(1,0,0,1,75,29.25)"><path fill="#0066ff" fill-opacity="1" d="M22.697,14L-2.197,14L28.001,-16.197C28.012,-16.209,28.023,-16.222,28.035,-16.234C28.196,-16.398,28.35,-16.567,28.497,-16.745C28.572,-16.837,28.638,-16.935,28.709,-17.03C28.784,-17.131,28.863,-17.229,28.932,-17.334C29.008,-17.445,29.072,-17.561,29.139,-17.675C29.197,-17.771,29.258,-17.864,29.31,-17.963C29.373,-18.079,29.426,-18.199,29.48,-18.317C29.529,-18.42,29.581,-18.522,29.625,-18.628C29.673,-18.745,29.712,-18.863,29.755,-18.981C29.795,-19.094,29.838,-19.205,29.873,-19.32C29.909,-19.439,29.935,-19.562,29.966,-19.682C29.995,-19.799,30.028,-19.913,30.051,-20.033C30.08,-20.174,30.096,-20.316,30.116,-20.459C30.131,-20.559,30.149,-20.656,30.16,-20.758C30.209,-21.251,30.209,-21.749,30.16,-22.243C30.149,-22.343,30.131,-22.441,30.117,-22.541C30.096,-22.684,30.08,-22.827,30.051,-22.968C30.028,-23.087,29.995,-23.201,29.966,-23.318C29.936,-23.438,29.909,-23.56,29.873,-23.68C29.838,-23.795,29.795,-23.906,29.755,-24.02C29.712,-24.137,29.673,-24.256,29.625,-24.372C29.581,-24.479,29.529,-24.58,29.48,-24.683C29.426,-24.802,29.373,-24.921,29.31,-25.037C29.258,-25.135,29.197,-25.229,29.14,-25.324C29.072,-25.439,29.008,-25.555,28.932,-25.667C28.863,-25.771,28.785,-25.868,28.711,-25.969C28.639,-26.064,28.573,-26.162,28.497,-26.255C28.35,-26.433,28.196,-26.602,28.035,-26.766C28.023,-26.778,28.012,-26.791,28.001,-26.804C27.991,-26.813,27.98,-26.821,27.97,-26.831C27.804,-26.995,27.632,-27.152,27.451,-27.3C27.366,-27.37,27.277,-27.43,27.19,-27.495C27.081,-27.578,26.974,-27.662,26.86,-27.737C26.758,-27.806,26.651,-27.866,26.546,-27.929C26.44,-27.992,26.339,-28.058,26.23,-28.115C26.124,-28.172,26.013,-28.22,25.904,-28.272C25.792,-28.325,25.68,-28.382,25.565,-28.43C25.46,-28.474,25.352,-28.508,25.245,-28.546C25.121,-28.591,24.999,-28.639,24.872,-28.678C24.765,-28.709,24.658,-28.733,24.551,-28.76C24.422,-28.792,24.293,-28.829,24.16,-28.855C24.039,-28.879,23.917,-28.893,23.796,-28.911C23.675,-28.929,23.556,-28.951,23.434,-28.963C23.218,-28.984,23.003,-28.993,22.786,-28.996C22.757,-28.996,22.727,-29,22.697,-29L-22.709,-29C-26.852,-29,-30.209,-25.642,-30.209,-21.5C-30.209,-17.358,-26.852,-14,-22.709,-14L4.591,-14L-25.607,16.196C-25.618,16.209,-25.629,16.222,-25.641,16.234C-25.802,16.398,-25.956,16.567,-26.103,16.745C-26.179,16.838,-26.245,16.936,-26.317,17.031C-26.391,17.132,-26.469,17.229,-26.538,17.333C-26.614,17.445,-26.678,17.561,-26.746,17.676C-26.803,17.771,-26.864,17.865,-26.916,17.963C-26.979,18.08,-27.032,18.2,-27.087,18.319C-27.136,18.421,-27.187,18.522,-27.231,18.627C-27.279,18.744,-27.319,18.863,-27.361,18.982C-27.401,19.095,-27.444,19.205,-27.479,19.32C-27.515,19.44,-27.542,19.562,-27.572,19.682C-27.601,19.799,-27.634,19.913,-27.657,20.032C-27.686,20.173,-27.702,20.316,-27.723,20.459C-27.737,20.559,-27.755,20.657,-27.766,20.757C-27.815,21.251,-27.815,21.749,-27.766,22.242C-27.755,22.344,-27.737,22.441,-27.722,22.541C-27.702,22.684,-27.686,22.826,-27.657,22.967C-27.634,23.087,-27.601,23.201,-27.572,23.318C-27.541,23.438,-27.515,23.561,-27.479,23.68C-27.444,23.794,-27.401,23.905,-27.361,24.017C-27.319,24.136,-27.279,24.255,-27.231,24.372C-27.187,24.478,-27.136,24.579,-27.087,24.681C-27.032,24.8,-26.979,24.92,-26.916,25.037C-26.864,25.136,-26.803,25.229,-26.745,25.325C-26.678,25.439,-26.614,25.555,-26.538,25.666C-26.469,25.771,-26.39,25.869,-26.315,25.97C-26.244,26.065,-26.178,26.163,-26.103,26.255C-25.956,26.433,-25.802,26.602,-25.641,26.766C-25.629,26.778,-25.618,26.791,-25.607,26.803C-25.597,26.813,-25.586,26.821,-25.576,26.83C-25.41,26.995,-25.238,27.151,-25.057,27.3C-24.973,27.369,-24.884,27.429,-24.798,27.494C-24.688,27.576,-24.58,27.661,-24.466,27.738C-24.364,27.806,-24.257,27.865,-24.153,27.928C-24.047,27.991,-23.945,28.057,-23.836,28.115C-23.729,28.172,-23.618,28.221,-23.508,28.273C-23.397,28.326,-23.286,28.382,-23.171,28.429C-23.064,28.474,-22.954,28.509,-22.845,28.549C-22.724,28.592,-22.604,28.639,-22.479,28.676C-22.369,28.709,-22.258,28.734,-22.147,28.762C-22.021,28.794,-21.896,28.829,-21.768,28.854C-21.639,28.88,-21.509,28.896,-21.379,28.914C-21.267,28.93,-21.157,28.951,-21.042,28.963C-20.797,28.987,-20.55,29,-20.303,29L22.697,29C26.84,29,30.197,25.642,30.197,21.5C30.197,17.358,26.84,14,22.697,14Z" /></g><g id="グループ 1" transform="matrix(1,0,0,1,27.547,99.867)"><path fill="#0066ff" fill-opacity="1" d="M25.124,-13.477C25.285,-13.641,25.438,-13.81,25.585,-13.988C25.66,-14.08,25.728,-14.176,25.798,-14.271C25.873,-14.372,25.951,-14.471,26.021,-14.576C26.096,-14.687,26.161,-14.803,26.229,-14.916C26.286,-15.013,26.347,-15.106,26.399,-15.205C26.462,-15.321,26.514,-15.44,26.568,-15.559C26.617,-15.662,26.67,-15.764,26.714,-15.87C26.763,-15.986,26.802,-16.104,26.843,-16.223C26.884,-16.336,26.927,-16.447,26.962,-16.563C26.998,-16.683,27.024,-16.804,27.055,-16.925C27.084,-17.041,27.117,-17.155,27.141,-17.274C27.169,-17.415,27.185,-17.558,27.205,-17.701C27.219,-17.8,27.239,-17.899,27.249,-17.999C27.298,-18.493,27.298,-18.992,27.249,-19.485C27.239,-19.586,27.219,-19.683,27.205,-19.782C27.185,-19.925,27.169,-20.069,27.141,-20.21C27.117,-20.328,27.084,-20.443,27.055,-20.559C27.025,-20.68,26.998,-20.802,26.962,-20.921C26.927,-21.037,26.884,-21.148,26.843,-21.261C26.802,-21.379,26.763,-21.498,26.714,-21.614C26.67,-21.72,26.617,-21.821,26.568,-21.925C26.514,-22.044,26.462,-22.163,26.399,-22.278C26.347,-22.377,26.286,-22.47,26.229,-22.566C26.161,-22.681,26.096,-22.796,26.02,-22.908C25.951,-23.012,25.874,-23.112,25.8,-23.212C25.728,-23.308,25.661,-23.405,25.585,-23.498C25.438,-23.675,25.285,-23.844,25.124,-24.007C25.112,-24.02,25.101,-24.033,25.089,-24.045C25.079,-24.055,25.068,-24.062,25.059,-24.072C24.893,-24.236,24.721,-24.394,24.54,-24.542C24.455,-24.611,24.366,-24.672,24.279,-24.738C24.17,-24.82,24.063,-24.904,23.949,-24.98C23.847,-25.049,23.738,-25.107,23.633,-25.171C23.528,-25.233,23.427,-25.299,23.318,-25.357C23.212,-25.414,23.103,-25.462,22.993,-25.514C22.881,-25.567,22.77,-25.623,22.654,-25.671C22.549,-25.715,22.44,-25.75,22.334,-25.788C22.21,-25.833,22.087,-25.881,21.96,-25.92C21.853,-25.952,21.747,-25.974,21.641,-26.001C21.511,-26.034,21.382,-26.07,21.249,-26.097C21.128,-26.121,21.005,-26.134,20.883,-26.153C20.763,-26.17,20.645,-26.192,20.523,-26.205C20.308,-26.226,20.091,-26.235,19.874,-26.238C19.844,-26.238,19.816,-26.243,19.786,-26.243L-19.798,-26.243C-23.94,-26.243,-27.298,-22.885,-27.298,-18.743C-27.298,-14.601,-23.94,-11.243,-19.798,-11.243L1.679,-11.243L-23.003,13.441C-23.015,13.453,-23.025,13.465,-23.037,13.477C-23.198,13.641,-23.353,13.811,-23.499,13.988C-23.575,14.081,-23.642,14.178,-23.713,14.274C-23.787,14.374,-23.866,14.472,-23.936,14.576C-24.011,14.688,-24.074,14.805,-24.143,14.92C-24.199,15.015,-24.26,15.107,-24.313,15.206C-24.375,15.322,-24.429,15.442,-24.484,15.562C-24.533,15.664,-24.583,15.765,-24.627,15.87C-24.675,15.987,-24.715,16.107,-24.757,16.226C-24.797,16.338,-24.841,16.448,-24.876,16.563C-24.912,16.683,-24.939,16.804,-24.968,16.925C-24.997,17.042,-25.03,17.156,-25.054,17.274C-25.082,17.416,-25.099,17.559,-25.119,17.702C-25.133,17.802,-25.151,17.9,-25.162,18.001C-25.211,18.495,-25.211,18.991,-25.162,19.485C-25.151,19.586,-25.133,19.684,-25.118,19.783C-25.099,19.926,-25.082,20.07,-25.054,20.212C-25.03,20.33,-24.997,20.445,-24.968,20.562C-24.938,20.683,-24.912,20.804,-24.876,20.923C-24.841,21.038,-24.797,21.148,-24.757,21.26C-24.715,21.379,-24.675,21.499,-24.627,21.615C-24.583,21.72,-24.533,21.821,-24.484,21.924C-24.429,22.043,-24.375,22.163,-24.313,22.279C-24.26,22.378,-24.2,22.471,-24.143,22.567C-24.075,22.682,-24.011,22.797,-23.936,22.908C-23.866,23.013,-23.787,23.113,-23.712,23.213C-23.642,23.309,-23.574,23.405,-23.499,23.498C-23.353,23.675,-23.198,23.845,-23.037,24.008C-23.025,24.021,-23.015,24.033,-23.003,24.046C-22.993,24.055,-22.982,24.064,-22.973,24.074C-22.807,24.238,-22.635,24.396,-22.454,24.544C-22.37,24.613,-22.281,24.672,-22.195,24.738C-22.085,24.82,-21.978,24.904,-21.863,24.98C-21.761,25.049,-21.653,25.108,-21.549,25.171C-21.443,25.233,-21.341,25.3,-21.232,25.357C-21.125,25.415,-21.015,25.463,-20.904,25.516C-20.793,25.568,-20.683,25.625,-20.567,25.671C-20.46,25.716,-20.352,25.752,-20.242,25.792C-20.121,25.835,-20.001,25.883,-19.876,25.92C-19.767,25.954,-19.655,25.978,-19.544,26.005C-19.418,26.038,-19.293,26.071,-19.165,26.098C-19.036,26.123,-18.905,26.138,-18.775,26.157C-18.663,26.173,-18.553,26.194,-18.439,26.205C-18.193,26.229,-17.947,26.243,-17.7,26.243L19.786,26.243C23.929,26.243,27.286,22.885,27.286,18.743C27.286,14.601,23.929,11.243,19.786,11.243L0.407,11.243L25.089,-13.438C25.101,-13.451,25.112,-13.465,25.124,-13.477Z" /></g></g></g></g></g></svg>